<svg xmlns="http://www.w3.org/2000/svg" xmlns:xlink="http://www.w3.org/1999/xlink" width="24" height="24" viewBox="0 0 24 24">
  <defs>
    <path id="t-left-a" d="M5,5 L14,5 C14.5522847,5 15,5.44771525 15,6 C15,6.55228475 14.5522847,7 14,7 L5,7 C4.44771525,7 4,6.55228475 4,6 C4,5.44771525 4.44771525,5 5,5 Z M5,9 L19,9 C19.5522847,9 20,9.44771525 20,10 C20,10.5522847 19.5522847,11 19,11 L5,11 C4.44771525,11 4,10.5522847 4,10 C4,9.44771525 4.44771525,9 5,9 Z M5,13 L15,13 C15.5522847,13 16,13.4477153 16,14 C16,14.5522847 15.5522847,15 15,15 L5,15 C4.44771525,15 4,14.5522847 4,14 C4,13.4477153 4.44771525,13 5,13 Z M5,17 L19,17 C19.5522847,17 20,17.4477153 20,18 C20,18.5522847 19.5522847,19 19,19 L5,19 C4.44771525,19 4,18.5522847 4,18 C4,17.4477153 4.44771525,17 5,17 Z"/>
  </defs>
  <g fill="none" fill-rule="evenodd">
    <use fill="#D8D8D8" xlink:href="#t-left-a"/>
  </g>
</svg>
