<svg xmlns="http://www.w3.org/2000/svg" xmlns:xlink="http://www.w3.org/1999/xlink" viewBox="0 0 24 24">
  <defs>
    <path id="bold-a" d="M14.8714735,11.1685233 C15.6330435,10.5590477 16.2961739,9.57810701 16.2961739,8.01003085 L16.2961739,7.96988256 C16.2961739,6.97315983 15.9825068,6.10749222 15.3638218,5.39687273 C15.3608721,5.3934604 15.3578224,5.39010137 15.3547727,5.38679567 C14.5174607,4.47954019 13.2645422,4 11.7314032,4 L7.44995275,4 C7.20142885,4 7,4.21481737 7,4.47986009 L7,18.5201399 C7,18.7851826 7.20142885,19 7.44995275,19 L11.9660286,19 C13.4351243,19 14.6805935,18.6153655 15.5678004,17.887631 C16.504752,17.1191084 17,16.0131375 17,14.6892035 L17,14.6490552 C17,13.0760738 16.2683768,11.8878336 14.8714735,11.1685233 Z M12.0021248,16.6162683 L9.3076077,16.6162683 L9.3076077,12.6217529 L11.7494513,12.6217529 C12.7360977,12.6217529 13.5162658,12.8110844 14.0056644,13.1693266 C14.4434684,13.4898199 14.6563461,13.9410483 14.6563461,14.5487644 L14.6563461,14.5888594 C14.6563461,16.4187259 12.800141,16.6162683 12.0021248,16.6162683 Z M11.4957279,10.2580154 L9.3076077,10.2580154 L9.3076077,6.38378499 L11.6051165,6.38378499 C13.0969098,6.38378499 13.95247,7.042313 13.95247,8.19051157 L13.95247,8.23060654 C13.95242,9.99462557 12.4132316,10.2580154 11.4957279,10.2580154 Z"/>
  </defs>
  <g fill="none" fill-rule="evenodd">
    <use fill-rule="nonzero" xlink:href="#bold-a"/>
  </g>
</svg>
