<svg xmlns="http://www.w3.org/2000/svg" xmlns:xlink="http://www.w3.org/1999/xlink" width="24" height="24" viewBox="0 0 24 24">
  <defs>
    <path id="brush-a" d="M19.022,6.224 C19.1660007,6.36800072 19.238,6.54499895 19.238,6.755 C19.238,6.96500105 19.1660007,7.14199928 19.022,7.286 L12.308,14 L10.238,11.93 L16.952,5.216 C17.0960007,5.07199928 17.272999,5 17.483,5 C17.693001,5 17.8699993,5.07199928 18.014,5.216 L19.022,6.224 Z M8.726,13.262 C9.12200198,13.262 9.49399826,13.363999 9.842,13.568 C10.1900017,13.772001 10.465999,14.0479983 10.67,14.396 C10.874001,14.7440017 10.976,15.115998 10.976,15.512 C10.976,16.0520027 10.8410014,16.5499977 10.571,17.006 C10.3009987,17.4620023 9.93800228,17.8249987 9.482,18.095 C9.02599772,18.3650014 8.52500273,18.5 7.979,18.5 C7.43299727,18.5 6.88700273,18.3620014 6.341,18.086 C5.79499727,17.8099986 5.34800174,17.4440023 5,16.988 C5.22800114,16.988 5.45599886,16.9310006 5.684,16.817 C5.91200114,16.7029994 6.09799928,16.544001 6.242,16.34 C6.39800078,16.0999988 6.476,15.8240016 6.476,15.512 C6.476,15.115998 6.57799898,14.7440017 6.782,14.396 C6.98600102,14.0479983 7.26199826,13.772001 7.61,13.568 C7.95800174,13.363999 8.32999802,13.262 8.726,13.262 Z"/>
  </defs>
  <g fill="none" fill-rule="evenodd">
    <use xlink:href="#brush-a"/>
  </g>
</svg>
