<svg xmlns="http://www.w3.org/2000/svg" viewBox="0 0 24 24">
  <g fill-rule="evenodd" transform="translate(4 6)">
    <path d="M5 1.5C5 1.22385763 5.22975063 1 5.50123084 1L15.4987692 1C15.7755913 1 16 1.23193359 16 1.5 16 1.77614237 15.7702494 2 15.4987692 2L5.50123084 2C5.22440869 2 5 1.76806641 5 1.5zM5 6.5C5 6.22385763 5.22975063 6 5.50123084 6L15.4987692 6C15.7755913 6 16 6.23193359 16 6.5 16 6.77614237 15.7702494 7 15.4987692 7L5.50123084 7C5.22440869 7 5 6.76806641 5 6.5zM5 11.5C5 11.2238576 5.22975063 11 5.50123084 11L15.4987692 11C15.7755913 11 16 11.2319336 16 11.5 16 11.7761424 15.7702494 12 15.4987692 12L5.50123084 12C5.22440869 12 5 11.7680664 5 11.5zM1.5 3C.671572875 3 0 2.32842712 0 1.5 0 .671572875.671572875 0 1.5 0 2.32842712 0 3 .671572875 3 1.5 3 2.32842712 2.32842712 3 1.5 3zM1.5 8C.671572875 8 0 7.32842712 0 6.5 0 5.67157288.671572875 5 1.5 5 2.32842712 5 3 5.67157288 3 6.5 3 7.32842712 2.32842712 8 1.5 8zM1.5 13C.671572875 13 0 12.3284271 0 11.5 0 10.6715729.671572875 10 1.5 10 2.32842712 10 3 10.6715729 3 11.5 3 12.3284271 2.32842712 13 1.5 13z"/>
  </g>
</svg>
