<svg xmlns="http://www.w3.org/2000/svg" width="24" height="24" viewBox="0 0 24 24">
  <path fill="#f35e5e" d="M6.33048947,7.0021478 L0.133497402,13.2424335 C-0.0386655729,13.4157993 -0.0386655729,13.696665 0.133497402,13.8700308 C0.219469511,13.9568238 0.33234892,14 0.445009571,14 C0.55788898,14 0.670549631,13.9568238 0.756521739,13.8700308 L7.00010938,7.58282392 L13.243697,13.8700308 C13.3298879,13.9568238 13.4425485,14 13.5552092,14 C13.6678698,14 13.7807492,13.9568238 13.8667214,13.8700308 C14.0388843,13.696665 14.0388843,13.4157993 13.8667214,13.2424335 L7.66994804,7.0021478 L13.8708778,0.757456316 C14.0430407,0.584090569 14.0430407,0.303224842 13.8708778,0.129859095 C13.6987148,-0.043286365 13.4197976,-0.043286365 13.2478534,0.129859095 L7.00032814,6.42147167 L0.752146568,0.130079382 C0.579983593,-0.0430660782 0.301285206,-0.0430660782 0.129122231,0.130079382 C-0.0430407438,0.303445129 -0.0430407438,0.584310856 0.129122231,0.757676603 L6.33048947,7.0021478 Z" transform="translate(5 5)"/>
</svg>
