<svg xmlns="http://www.w3.org/2000/svg" xmlns:xlink="http://www.w3.org/1999/xlink" width="24" height="24" viewBox="0 0 24 24">
  <defs>
    <path id="edit-a" d="M19.0625,4.78125 C19.3750016,5.07291813 19.6093742,5.37760258 19.765625,5.6953125 C19.9218758,6.01302242 20.0052083,6.33333172 20.015625,6.65625 C20.0260417,7.00000172 19.9531258,7.33593586 19.796875,7.6640625 C19.6406242,7.99218914 19.4114598,8.31249844 19.109375,8.625 C18.9635409,8.78125078 18.3802134,9.36457828 17.359375,10.375 C16.3385366,11.3854217 15.2369851,12.4765566 14.0546875,13.6484375 C12.8723899,14.8203184 11.7864633,15.8958284 10.796875,16.875 C9.80728672,17.8541716 9.26562547,18.3906245 9.171875,18.484375 C9.14062484,18.5156252 9.10677102,18.5416666 9.0703125,18.5625 C9.03385398,18.5833334 8.99479188,18.5989583 8.953125,18.609375 C8.80729094,18.6510419 8.50000234,18.7473951 8.03125,18.8984375 C7.56249766,19.0494799 7.08073164,19.2031242 6.5859375,19.359375 C6.09114336,19.5156258 5.64583531,19.6588535 5.25,19.7890625 C4.85416469,19.9192715 4.65104172,19.984375 4.640625,19.984375 C4.61979156,19.9947917 4.5963543,20.0026041 4.5703125,20.0078125 C4.5442707,20.0130209 4.51562516,20.015625 4.484375,20.015625 C4.42187469,20.015625 4.35937531,20.0026043 4.296875,19.9765625 C4.23437469,19.9505207 4.18229187,19.9114586 4.140625,19.859375 C4.06770797,19.7968747 4.02083344,19.7187505 4,19.625 C3.97916656,19.5312495 3.97916656,19.4375005 4,19.34375 C4.01041672,19.3333333 4.07291609,19.1380227 4.1875,18.7578125 C4.30208391,18.3776023 4.43489508,17.9375025 4.5859375,17.4375 C4.73697992,16.9374975 4.8828118,16.4505232 5.0234375,15.9765625 C5.1640632,15.5026018 5.26041641,15.1614594 5.3125,14.953125 C5.33333344,14.9114581 5.35416656,14.872396 5.375,14.8359375 C5.39583344,14.799479 5.42187484,14.7656252 5.453125,14.734375 L10.296875,9.890625 C11.5156311,8.67186891 12.643224,7.54167188 13.6796875,6.5 C14.716151,5.45832812 15.270833,4.90625031 15.34375,4.84375 C15.4479172,4.73958281 15.6718733,4.57031367 16.015625,4.3359375 C16.3593767,4.10156133 16.7812475,3.984375 17.28125,3.984375 C17.6041683,3.984375 17.914061,4.05208266 18.2109375,4.1875 C18.507814,4.32291734 18.7916653,4.52083203 19.0625,4.78125 Z M15.1875,6.4375 C14.6979142,6.91666906 14.0729205,7.53645453 13.3125,8.296875 C12.5520795,9.05729547 11.7682332,9.84374594 10.9609375,10.65625 C10.1536418,11.4687541 9.38021203,12.244788 8.640625,12.984375 L6.875,14.75 C7.08333437,14.8333338 7.31510289,14.9531242 7.5703125,15.109375 C7.82552211,15.2656258 8.08333203,15.473957 8.34375,15.734375 C8.55208437,15.9531261 8.7265618,16.174478 8.8671875,16.3984375 C9.0078132,16.622397 9.11979125,16.8281241 9.203125,17.015625 C9.64062719,16.5781228 10.2265588,15.9973995 10.9609375,15.2734375 C11.6953162,14.5494755 12.4635377,13.7890665 13.265625,12.9921875 C14.0677123,12.1953085 14.8463504,11.4218787 15.6015625,10.671875 C16.3567746,9.92187125 16.9791642,9.30729406 17.46875,8.828125 C17.4583333,8.74479125 17.398438,8.5494807 17.2890625,8.2421875 C17.179687,7.9348943 16.9687516,7.62500156 16.65625,7.3125 C16.3437484,7.01041516 16.0520847,6.79687563 15.78125,6.671875 C15.5104153,6.54687438 15.3125006,6.46875016 15.1875,6.4375 Z M6.1875,15.59375 C6.07291609,15.9791686 5.91406352,16.4895802 5.7109375,17.125 C5.50781148,17.7604198 5.33333406,18.3124977 5.1875,18.78125 C5.67708578,18.6249992 6.24478844,18.4375011 6.890625,18.21875 C7.53646156,17.9999989 8.03124828,17.8333339 8.375,17.71875 C8.32291641,17.5624992 8.23958391,17.3697928 8.125,17.140625 C8.01041609,16.9114572 7.84375109,16.6875011 7.625,16.46875 C7.33333187,16.1770819 7.05729297,15.9661465 6.796875,15.8359375 C6.53645703,15.7057285 6.33333406,15.6250002 6.1875,15.59375 Z M18.375,7.90625 C18.5833344,7.69791563 18.7395828,7.48958437 18.84375,7.28125 C18.9479172,7.07291563 19,6.87500094 19,6.6875 C19,6.49999906 18.945313,6.30729266 18.8359375,6.109375 C18.726562,5.91145734 18.5677094,5.71354266 18.359375,5.515625 C18.1927075,5.3489575 18.0182301,5.22395875 17.8359375,5.140625 C17.6536449,5.05729125 17.4687509,5.015625 17.28125,5.015625 C16.9583317,5.015625 16.6796887,5.0989575 16.4453125,5.265625 C16.2109363,5.4322925 16.0833334,5.53124984 16.0625,5.5625 L15.984375,5.640625 C16.1822927,5.72395875 16.4010405,5.84114508 16.640625,5.9921875 C16.8802095,6.14322992 17.1249987,6.34374875 17.375,6.59375 C17.6145845,6.83333453 17.8072909,7.07812375 17.953125,7.328125 C18.0989591,7.57812625 18.208333,7.80729063 18.28125,8.015625 C18.3020834,7.99479156 18.3203124,7.97395844 18.3359375,7.953125 C18.3515626,7.93229156 18.3645833,7.91666672 18.375,7.90625 Z"/>
  </defs>
  <g fill="none" fill-rule="evenodd">
    <use xlink:href="#edit-a"/>
  </g>
</svg>
