<svg xmlns="http://www.w3.org/2000/svg" xmlns:xlink="http://www.w3.org/1999/xlink" width="24" height="24" viewBox="0 0 24 24">
  <defs>
    <path id="fullscreen-a" d="M14.71875,9.984375 C14.6249995,10.0885422 14.5078132,10.140625 14.3671875,10.140625 C14.2265618,10.140625 14.1093755,10.0885422 14.015625,9.984375 C13.9114578,9.89062453 13.859375,9.7734382 13.859375,9.6328125 C13.859375,9.4921868 13.9114578,9.37500047 14.015625,9.28125 L18.296875,5.015625 L15.9375,5.015625 C15.8333328,5.015625 15.7395837,4.98177117 15.65625,4.9140625 C15.5729163,4.84635383 15.5260417,4.75520891 15.515625,4.640625 L15.515625,4.390625 C15.515625,4.28645781 15.552083,4.19791703 15.625,4.125 C15.697917,4.05208297 15.7864578,4.015625 15.890625,4.015625 L19.46875,4.03125 L19.484375,4.03125 L19.671875,4.015625 C19.7135419,4.015625 19.7578123,4.02604156 19.8046875,4.046875 C19.8515627,4.06770844 19.8906248,4.09374984 19.921875,4.125 C19.9531252,4.15625016 19.9765624,4.19270812 19.9921875,4.234375 C20.0078126,4.27604188 20.015625,4.32291641 20.015625,4.375 L19.984375,4.5625 L19.9921875,4.5625 C19.9973959,4.5625 20,4.56770828 20,4.578125 L20,8.1875 C19.9895833,8.28125047 19.947917,8.35677055 19.875,8.4140625 C19.802083,8.47135445 19.7187505,8.50520828 19.625,8.515625 L19.359375,8.515625 C19.2552078,8.515625 19.1692712,8.47656289 19.1015625,8.3984375 C19.0338538,8.32031211 19,8.23437547 19,8.140625 L19.015625,5.71875 L14.71875,9.984375 Z M9.296875,14.015625 C9.39062547,13.9114578 9.5078118,13.859375 9.6484375,13.859375 C9.7890632,13.859375 9.90624953,13.9114578 10,14.015625 C10.1041672,14.1093755 10.15625,14.2265618 10.15625,14.3671875 C10.15625,14.5078132 10.1041672,14.6249995 10,14.71875 L5.71875,18.984375 L8.078125,18.984375 C8.18229219,18.984375 8.27604125,19.0182288 8.359375,19.0859375 C8.44270875,19.1536462 8.48958328,19.2447911 8.5,19.359375 L8.5,19.609375 C8.5,19.7135422 8.46354203,19.802083 8.390625,19.875 C8.31770797,19.947917 8.22916719,19.984375 8.125,19.984375 L4.53125,19.96875 L4.515625,19.96875 L4.328125,19.984375 C4.28645813,19.984375 4.24218773,19.9739584 4.1953125,19.953125 C4.14843727,19.9322916 4.10937516,19.9062502 4.078125,19.875 C4.04687484,19.8437498 4.02343758,19.8072919 4.0078125,19.765625 C3.99218742,19.7239581 3.984375,19.6770836 3.984375,19.625 L4.015625,19.4375 L4.0078125,19.4375 C4.00260414,19.4375 4,19.4322917 4,19.421875 L4,15.8125 C4.01041672,15.7187495 4.05208297,15.6432295 4.125,15.5859375 C4.19791703,15.5286455 4.28124953,15.4947917 4.375,15.484375 L4.65625,15.484375 C4.76041719,15.484375 4.84635383,15.5234371 4.9140625,15.6015625 C4.98177117,15.6796879 5.015625,15.7656245 5.015625,15.859375 L5,18.28125 L9.296875,14.015625 Z M20,19.421875 C20,19.4322917 19.9973959,19.4375 19.9921875,19.4375 L19.984375,19.4375 L20.015625,19.625 C20.015625,19.6770836 20.0078126,19.7239581 19.9921875,19.765625 C19.9765624,19.8072919 19.9531252,19.8437498 19.921875,19.875 C19.8906248,19.9062502 19.8515627,19.9322916 19.8046875,19.953125 C19.7578123,19.9739584 19.7135419,19.984375 19.671875,19.984375 L19.484375,19.96875 L19.46875,19.96875 L15.890625,19.984375 C15.7864578,19.984375 15.697917,19.947917 15.625,19.875 C15.552083,19.802083 15.515625,19.7135422 15.515625,19.609375 L15.515625,19.359375 C15.5260417,19.2447911 15.5729163,19.1536462 15.65625,19.0859375 C15.7395837,19.0182288 15.8333328,18.984375 15.9375,18.984375 L18.296875,18.984375 L14.015625,14.71875 C13.9114578,14.6249995 13.859375,14.5078132 13.859375,14.3671875 C13.859375,14.2265618 13.9114578,14.1093755 14.015625,14.015625 C14.1093755,13.9114578 14.2265618,13.859375 14.3671875,13.859375 C14.5078132,13.859375 14.6249995,13.9114578 14.71875,14.015625 L19.015625,18.28125 L19,15.859375 C19,15.7656245 19.0338538,15.6796879 19.1015625,15.6015625 C19.1692712,15.5234371 19.2552078,15.484375 19.359375,15.484375 L19.625,15.484375 C19.7187505,15.4947917 19.802083,15.5286455 19.875,15.5859375 C19.947917,15.6432295 19.9895833,15.7187495 20,15.8125 L20,19.421875 Z M5.71875,5.015625 L10,9.28125 C10.1041672,9.37500047 10.15625,9.4921868 10.15625,9.6328125 C10.15625,9.7734382 10.1041672,9.89062453 10,9.984375 C9.90624953,10.0885422 9.7890632,10.140625 9.6484375,10.140625 C9.5078118,10.140625 9.39062547,10.0885422 9.296875,9.984375 L5,5.71875 L5.015625,8.140625 C5.015625,8.23437547 4.98177117,8.32031211 4.9140625,8.3984375 C4.84635383,8.47656289 4.76041719,8.515625 4.65625,8.515625 L4.375,8.515625 C4.28124953,8.50520828 4.19791703,8.47135445 4.125,8.4140625 C4.05208297,8.35677055 4.01041672,8.28125047 4,8.1875 L4,4.578125 C4,4.56770828 4.00260414,4.5625 4.0078125,4.5625 L4.015625,4.5625 L3.984375,4.375 C3.984375,4.32291641 3.99218742,4.27604188 4.0078125,4.234375 C4.02343758,4.19270812 4.04687484,4.15625016 4.078125,4.125 C4.10937516,4.09374984 4.14843727,4.06770844 4.1953125,4.046875 C4.24218773,4.02604156 4.28645813,4.015625 4.328125,4.015625 L4.515625,4.03125 L4.53125,4.03125 L8.125,4.015625 C8.22916719,4.015625 8.31770797,4.05208297 8.390625,4.125 C8.46354203,4.19791703 8.5,4.28645781 8.5,4.390625 L8.5,4.640625 C8.48958328,4.75520891 8.44270875,4.84635383 8.359375,4.9140625 C8.27604125,4.98177117 8.18229219,5.015625 8.078125,5.015625 L5.71875,5.015625 Z"/>
  </defs>
  <g fill="none" fill-rule="evenodd">
    <use fill="#556066" xlink:href="#fullscreen-a"/>
  </g>
</svg>
