<svg xmlns="http://www.w3.org/2000/svg" xmlns:xlink="http://www.w3.org/1999/xlink" width="24" height="24" viewBox="0 0 24 24">
  <defs>
    <path id="h2-a" d="M11.7736352,17 L11.7736352,8 L10.6131824,8 L10.6131824,11.8725637 L5.16045273,11.8725637 L5.16045273,8 L4,8 L4,17 L5.16045273,17 L5.16045273,12.8710645 L10.6131824,12.8710645 L10.6131824,17 L11.7736352,17 Z M19,17 L19,16.1441422 L15.081225,16.1441422 C17.310253,14.4439923 18.9640479,13.0098522 18.9640479,11.4369244 C18.9640479,9.89869351 17.6098535,9.17005783 16.2796272,9.17005783 C15.1531292,9.17005783 14.1105193,9.60955237 13.4993342,10.3844506 L14.1105193,10.9974299 C14.5778961,10.4191476 15.3209055,10.0259156 16.2796272,10.0259156 C17.1065246,10.0259156 17.9454061,10.4538445 17.9454061,11.4369244 C17.9454061,12.7669737 16.3874834,14.0507603 13.5113182,16.2366674 L13.5113182,17 L19,17 Z"/>
  </defs>
  <g fill="none" fill-rule="evenodd">
    <use xlink:href="#h2-a"/>
  </g>
</svg>
