<svg xmlns="http://www.w3.org/2000/svg" xmlns:xlink="http://www.w3.org/1999/xlink" width="24" height="24" viewBox="0 0 24 24">
  <defs>
    <path id="italic-a" d="M16.6382223,4 L10.4423635,4 C10.2425391,4 10.0805376,4.16460731 10.0805376,4.36764586 C10.0805376,4.57068441 10.2425391,4.73529171 10.4423635,4.73529171 L13.0937274,4.73529171 L10.2701826,18.2646593 L7.36182592,18.2646593 C7.16200152,18.2646593 7,18.4292666 7,18.6323051 C7,18.8353437 7.16200152,18.999951 7.36182592,18.999951 L10.5622485,18.999951 C10.5626827,18.999951 10.5631652,19 10.5635993,19 C10.5638888,19 10.56413,18.999951 10.5644195,18.999951 L13.5576365,18.999951 C13.7574609,18.999951 13.9194624,18.8353437 13.9194624,18.6323051 C13.9194624,18.4292666 13.7574609,18.2646593 13.5576365,18.2646593 L11.0098513,18.2646593 L13.833396,4.73529171 L16.6381741,4.73529171 C16.8379985,4.73529171 17,4.57068441 17,4.36764586 C17,4.16460731 16.8380467,4 16.6382223,4 Z"/>
  </defs>
  <g fill="none" fill-rule="evenodd">
    <use fill="#FFF" fill-rule="nonzero" xlink:href="#italic-a"/>
  </g>
</svg>
