<svg xmlns="http://www.w3.org/2000/svg" xmlns:xlink="http://www.w3.org/1999/xlink" width="24" height="24" viewBox="0 0 24 24">
  <defs>
    <path id="link-a" d="M8.625,15.4375 C8.52083281,15.3437495 8.46875,15.2291673 8.46875,15.09375 C8.46875,14.9583327 8.52083281,14.8385422 8.625,14.734375 L14.671875,8.640625 C14.7760422,8.53645781 14.8958327,8.484375 15.03125,8.484375 C15.1666673,8.484375 15.2864578,8.53645781 15.390625,8.640625 C15.4843755,8.73437547 15.53125,8.84895766 15.53125,8.984375 C15.53125,9.11979234 15.4843755,9.23958281 15.390625,9.34375 L9.328125,15.4375 C9.27604141,15.4895836 9.21875031,15.5286457 9.15625,15.5546875 C9.09374969,15.5807293 9.03125031,15.59375 8.96875,15.59375 C8.90624969,15.59375 8.84375031,15.5807293 8.78125,15.5546875 C8.71874969,15.5286457 8.66666688,15.4895836 8.625,15.4375 Z M11.4375,14.375 L12.234375,13.59375 C12.4843763,14.187503 12.5572922,14.799476 12.453125,15.4296875 C12.3489578,16.059899 12.0520858,16.6145809 11.5625,17.09375 L9.546875,19.046875 C9.23437344,19.3697933 8.87760617,19.6093742 8.4765625,19.765625 C8.07551883,19.9218758 7.66666875,20 7.25,20 C6.83333125,20 6.42448117,19.9218758 6.0234375,19.765625 C5.62239383,19.6093742 5.26562656,19.3697933 4.953125,19.046875 C4.63020672,18.7343734 4.39062578,18.3776062 4.234375,17.9765625 C4.07812422,17.5755188 4,17.1666687 4,16.75 C4,16.3333313 4.07812422,15.9270853 4.234375,15.53125 C4.39062578,15.1354147 4.63020672,14.7760433 4.953125,14.453125 L6.921875,12.421875 C7.23437656,12.1093734 7.59114383,11.8723966 7.9921875,11.7109375 C8.39323117,11.5494784 8.80208125,11.46875 9.21875,11.46875 C9.45833453,11.46875 9.69270719,11.4947914 9.921875,11.546875 C10.1510428,11.5989586 10.3749989,11.6770828 10.59375,11.78125 L9.8125,12.5625 C9.71874953,12.5312498 9.62239633,12.5078126 9.5234375,12.4921875 C9.42447867,12.4765624 9.32291719,12.46875 9.21875,12.46875 C8.91666516,12.46875 8.62760555,12.5260411 8.3515625,12.640625 C8.07551945,12.7552089 7.83333437,12.9166656 7.625,13.125 L5.65625,15.171875 C5.21874781,15.5989605 5,16.1249969 5,16.75 C5,17.3750031 5.21874781,17.9062478 5.65625,18.34375 C5.87500109,18.5520844 6.11979031,18.7135411 6.390625,18.828125 C6.66145969,18.9427089 6.94791516,19 7.25,19 C7.55208484,19 7.83854031,18.9427089 8.109375,18.828125 C8.38020969,18.7135411 8.62499891,18.5520844 8.84375,18.34375 L10.859375,16.390625 C11.1406264,16.1093736 11.3281245,15.7942726 11.421875,15.4453125 C11.5156255,15.0963524 11.5208337,14.7395852 11.4375,14.375 Z M19.046875,4.953125 C19.3697933,5.26562656 19.6093742,5.62239383 19.765625,6.0234375 C19.9218758,6.42448117 20,6.83333125 20,7.25 C20,7.66666875 19.9218758,8.07291469 19.765625,8.46875 C19.6093742,8.86458531 19.3697933,9.22395672 19.046875,9.546875 L17.03125,11.5625 C16.7187484,11.8750016 16.3619812,12.1119784 15.9609375,12.2734375 C15.5598938,12.4348966 15.1510437,12.515625 14.734375,12.515625 C14.5260406,12.515625 14.3177094,12.5000002 14.109375,12.46875 C13.9010406,12.4374998 13.6979177,12.3802087 13.5,12.296875 L14.296875,11.5 C14.369792,11.5104167 14.442708,11.515625 14.515625,11.515625 L14.734375,11.515625 C15.0364598,11.515625 15.3255195,11.4583339 15.6015625,11.34375 C15.8776055,11.2291661 16.1197906,11.0677094 16.328125,10.859375 L18.34375,8.828125 C18.7812522,8.40103953 19,7.87500312 19,7.25 C19,6.62499688 18.7812522,6.09375219 18.34375,5.65625 C18.1249989,5.44791563 17.8802097,5.28645891 17.609375,5.171875 C17.3385403,5.05729109 17.0520848,5 16.75,5 C16.4479152,5 16.1614597,5.05729109 15.890625,5.171875 C15.6197903,5.28645891 15.3750011,5.44791563 15.15625,5.65625 L13.140625,7.609375 C12.8385402,7.91145984 12.6432296,8.26301883 12.5546875,8.6640625 C12.4661454,9.06510617 12.4791661,9.45833141 12.59375,9.84375 L11.8125,10.625 C11.5208319,10.0208303 11.4270828,9.37500344 11.53125,8.6875 C11.6354172,7.99999656 11.9374975,7.4062525 12.4375,6.90625 L14.453125,4.953125 C14.7656266,4.63020672 15.1223938,4.39062578 15.5234375,4.234375 C15.9244812,4.07812422 16.3333313,4 16.75,4 C17.1666687,4 17.5755188,4.07812422 17.9765625,4.234375 C18.3776062,4.39062578 18.7343734,4.63020672 19.046875,4.953125 Z"/>
  </defs>
  <g fill="none" fill-rule="evenodd">
    <use fill="#9AA5AB" xlink:href="#link-a"/>
  </g>
</svg>
