<svg xmlns="http://www.w3.org/2000/svg" xmlns:xlink="http://www.w3.org/1999/xlink" width="24" height="24" viewBox="0 0 24 24">
  <defs>
    <path id="list-numbers-a" d="M5.76,9 L4.624,9 L4.624,5.128 L3.736,6.032 L3.088,5.352 L4.768,3.664 L5.76,3.664 L5.76,9 Z M7.392,16 L3.376,16 L3.376,15.112 C5.56,13.496 6.2,12.944 6.2,12.288 C6.2,11.824 5.776,11.592 5.336,11.592 C4.728,11.592 4.264,11.832 3.904,12.208 L3.256,11.456 C3.776,10.856 4.568,10.584 5.312,10.584 C6.448,10.584 7.352,11.224 7.352,12.288 C7.352,13.2 6.6,13.992 5.216,15 L7.392,15 L7.392,16 Z M9,7.5 C9,7.22385763 9.22975063,7 9.50123084,7 L19.4987692,7 C19.7755913,7 20,7.23193359 20,7.5 C20,7.77614237 19.7702494,8 19.4987692,8 L9.50123084,8 C9.22440869,8 9,7.76806641 9,7.5 Z M9,12.5 C9,12.2238576 9.22975063,12 9.50123084,12 L19.4987692,12 C19.7755913,12 20,12.2319336 20,12.5 C20,12.7761424 19.7702494,13 19.4987692,13 L9.50123084,13 C9.22440869,13 9,12.7680664 9,12.5 Z M9,17.5 C9,17.2238576 9.22975063,17 9.50123084,17 L19.4987692,17 C19.7755913,17 20,17.2319336 20,17.5 C20,17.7761424 19.7702494,18 19.4987692,18 L9.50123084,18 C9.22440869,18 9,17.7680664 9,17.5 Z"/>
  </defs>
  <g fill="none" fill-rule="evenodd">
    <use xlink:href="#list-numbers-a"/>
  </g>
</svg>
