<svg xmlns="http://www.w3.org/2000/svg" xmlns:xlink="http://www.w3.org/1999/xlink" width="24" height="24" viewBox="0 0 24 24">
  <defs>
    <path id="open-a" d="M18.09375,18.828125 L18.09375,11.96875 L19.09375,11.015625 L19.09375,18.828125 C19.09375,19.1093764 18.9947927,19.3463532 18.796875,19.5390625 C18.5989573,19.7317718 18.3645847,19.828125 18.09375,19.828125 L5.09375,19.828125 C4.81249859,19.828125 4.5755218,19.7317718 4.3828125,19.5390625 C4.1901032,19.3463532 4.09375,19.1093764 4.09375,18.828125 L4.09375,8.828125 C4.09375,8.55729031 4.1901032,8.32291766 4.3828125,8.125 C4.5755218,7.92708234 4.81249859,7.828125 5.09375,7.828125 L10.09375,7.828125 L10.125,7.859375 L9.109375,8.828125 L5.09375,8.828125 L5.09375,18.828125 L18.09375,18.828125 Z M8.21875,14.828125 C8.39583422,13.7031194 8.76301805,12.6510466 9.3203125,11.671875 C9.87760695,10.6927034 10.5703084,9.84635773 11.3984375,9.1328125 C12.2265666,8.41926727 13.1692655,7.85677289 14.2265625,7.4453125 C15.2838595,7.03385211 16.4062441,6.828125 17.59375,6.828125 C17.6770838,6.828125 17.7578121,6.828125 17.8359375,6.828125 C17.9140629,6.828125 17.989583,6.828125 18.0625,6.828125 L16.25,5.015625 C16.1562495,4.92187453 16.109375,4.8046882 16.109375,4.6640625 C16.109375,4.5234368 16.1562495,4.40625047 16.25,4.3125 C16.3437505,4.21874953 16.4609368,4.171875 16.6015625,4.171875 C16.7421882,4.171875 16.8593745,4.21874953 16.953125,4.3125 L19.90625,7.34375 L16.953125,10.375 C16.9010414,10.4270836 16.8463545,10.4635416 16.7890625,10.484375 C16.7317705,10.5052084 16.6718753,10.515625 16.609375,10.515625 C16.536458,10.515625 16.4713545,10.5052084 16.4140625,10.484375 C16.3567705,10.4635416 16.3020836,10.4270836 16.25,10.375 C16.1562495,10.2812495 16.109375,10.1640632 16.109375,10.0234375 C16.109375,9.8828118 16.1562495,9.76562547 16.25,9.671875 L18.078125,7.84375 C17.9947912,7.83333328 17.9114588,7.828125 17.828125,7.828125 C17.7447912,7.828125 17.6562505,7.828125 17.5625,7.828125 C16.5208281,7.828125 15.5338588,8.0078107 14.6015625,8.3671875 C13.6692662,8.7265643 12.833337,9.21874688 12.09375,9.84375 C11.354163,10.4687531 10.7343775,11.2083291 10.234375,12.0625 C9.7343725,12.9166709 9.4010425,13.8385367 9.234375,14.828125 L8.21875,14.828125 Z"/>
  </defs>
  <g fill="none" fill-rule="evenodd">
    <use fill="#556066" xlink:href="#open-a"/>
  </g>
</svg>
