<svg xmlns="http://www.w3.org/2000/svg" xmlns:xlink="http://www.w3.org/1999/xlink" width="24" height="24" viewBox="0 0 24 24">
  <defs>
    <path id="picture-a" d="M19,5.25 C19.2708347,5.25 19.5052073,5.34895734 19.703125,5.546875 C19.9010427,5.74479266 20,5.97916531 20,6.25 L20,17.75 C20,18.0208347 19.9010427,18.2552073 19.703125,18.453125 C19.5052073,18.6510427 19.2708347,18.75 19,18.75 L5,18.75 C4.72916531,18.75 4.49479266,18.6510427 4.296875,18.453125 C4.09895734,18.2552073 4,18.0208347 4,17.75 L4,6.25 C4,5.97916531 4.09895734,5.74479266 4.296875,5.546875 C4.49479266,5.34895734 4.72916531,5.25 5,5.25 L19,5.25 Z M19,17.75 L19,16.828125 L18.9765625,16.8046875 C18.9713541,16.7994791 18.9635417,16.796875 18.953125,16.796875 L15.671875,13.40625 L13.84375,15.0625 C13.7291661,15.1458337 13.6067715,15.1901041 13.4765625,15.1953125 C13.3463535,15.2005209 13.2395837,15.1510422 13.15625,15.046875 L9.015625,10.921875 L5,14.8125 L5,17.75 L19,17.75 Z M19,15.40625 L19,6.25 L5,6.25 L5,13.40625 L8.65625,9.859375 C8.70833359,9.80729141 8.76562469,9.77083344 8.828125,9.75 C8.89062531,9.72916656 8.95833297,9.71875 9.03125,9.71875 C9.09375031,9.71875 9.15624969,9.73437484 9.21875,9.765625 C9.28125031,9.79687516 9.33854141,9.84374969 9.390625,9.90625 L13.515625,14 L15.40625,12.359375 C15.5104172,12.2760413 15.6223952,12.2395833 15.7421875,12.25 C15.8619798,12.2604167 15.9687495,12.3072913 16.0625,12.390625 L19,15.40625 Z M15.5,10.25 C15.2291653,10.25 14.9947927,10.1536468 14.796875,9.9609375 C14.5989573,9.7682282 14.5,9.53125141 14.5,9.25 C14.5,8.97916531 14.5989573,8.74479266 14.796875,8.546875 C14.9947927,8.34895734 15.2291653,8.25 15.5,8.25 C15.7708347,8.25 16.0052073,8.34895734 16.203125,8.546875 C16.4010427,8.74479266 16.5,8.97916531 16.5,9.25 C16.5,9.53125141 16.4010427,9.7682282 16.203125,9.9609375 C16.0052073,10.1536468 15.7708347,10.25 15.5,10.25 Z"/>
  </defs>
  <g fill="none" fill-rule="evenodd">
    <use xlink:href="#picture-a"/>
  </g>
</svg>
