<svg xmlns="http://www.w3.org/2000/svg" xmlns:xlink="http://www.w3.org/1999/xlink" width="24" height="24" viewBox="0 0 24 24">
  <defs>
    <path id="side-image-copy-a" d="M4.5,5 L19.5,5 C19.7761424,5 20,5.22385763 20,5.5 C20,5.77614237 19.7761424,6 19.5,6 L4.5,6 C4.22385763,6 4,5.77614237 4,5.5 C4,5.22385763 4.22385763,5 4.5,5 Z M4.5,8 L11.5,8 C11.7761424,8 12,8.22385763 12,8.5 C12,8.77614237 11.7761424,9 11.5,9 L4.5,9 C4.22385763,9 4,8.77614237 4,8.5 C4,8.22385763 4.22385763,8 4.5,8 Z M4.5,14 L11.5,14 C11.7761424,14 12,14.2238576 12,14.5 C12,14.7761424 11.7761424,15 11.5,15 L4.5,15 C4.22385763,15 4,14.7761424 4,14.5 C4,14.2238576 4.22385763,14 4.5,14 Z M4.5,11 L11.5,11 C11.7761424,11 12,11.2238576 12,11.5 C12,11.7761424 11.7761424,12 11.5,12 L4.5,12 C4.22385763,12 4,11.7761424 4,11.5 C4,11.2238576 4.22385763,11 4.5,11 Z M14,8 L19,8 C19.5522847,8 20,8.44771525 20,9 L20,14 C20,14.5522847 19.5522847,15 19,15 L14,15 C13.4477153,15 13,14.5522847 13,14 L13,9 C13,8.44771525 13.4477153,8 14,8 Z M14,9 L19,9 L19,14 L14,14 L14,9 Z M4.5,17 L19.5,17 C19.7761424,17 20,17.2238576 20,17.5 C20,17.7761424 19.7761424,18 19.5,18 L4.5,18 C4.22385763,18 4,17.7761424 4,17.5 C4,17.2238576 4.22385763,17 4.5,17 Z"/>
  </defs>
  <g fill="none" fill-rule="evenodd">
    <use fill="#D8D8D8" xlink:href="#side-image-copy-a"/>
  </g>
</svg>
