<svg xmlns="http://www.w3.org/2000/svg" xmlns:xlink="http://www.w3.org/1999/xlink" width="24" height="24" viewBox="0 0 24 24">
  <defs>
    <path id="crossed-a" d="M13.9704691,13.9008224 L16.6850081,13.9008224 C16.7095355,14.0948621 16.7223077,14.2994264 16.7223077,14.5152395 C16.7223077,16.9317852 15.1023077,19 11.3638462,19 C8.80923077,19 6.96076923,18.0638607 5.73538462,16.6923077 L7.08538462,14.7329463 C8.04076923,15.7997097 9.53615385,16.7358491 11.4676923,16.7358491 C13.4615385,16.7358491 14.2507692,15.712627 14.2507692,14.754717 C14.2507692,14.4140082 14.1498122,14.1350533 13.9704691,13.9008224 Z M6.57325069,10.0474117 C6.31868077,9.55875902 6.17153846,8.96803772 6.17153846,8.24528302 C6.17153846,5.85050798 8.18615385,4 11.2184615,4 C13.3784615,4 15.1230769,4.71843251 16.4107692,6.02467344 L15.0192308,7.91872279 C13.9392308,6.78664731 12.4646154,6.26415094 11.0107692,6.26415094 C9.57769231,6.26415094 8.66384615,6.98258345 8.66384615,8.07111756 C8.66384615,9.23955529 10.1734946,9.58822345 11.8859659,10.0474117 L6.57325069,10.0474117 Z M4,11.256894 L19,11.256894 L19,12.4663764 L4,12.4663764 L4,11.256894 Z"/>
  </defs>
  <g fill="none" fill-rule="evenodd">
    <use xlink:href="#crossed-a"/>
  </g>
</svg>
