<svg xmlns="http://www.w3.org/2000/svg" xmlns:xlink="http://www.w3.org/1999/xlink" width="24" height="24" viewBox="0 0 24 24">
  <defs>
    <path id="table-style-a" d="M7.5,5 C7.63541734,5 7.75260367,5.05541611 7.8515625,5.16625 C7.95052133,5.27708389 8,5.40833258 8,5.56 C8,5.71166742 7.95052133,5.84291611 7.8515625,5.95375 C7.75260367,6.06458389 7.63541734,6.12 7.5,6.12 L5,6.12 L5,8.92 C5,9.07166742 4.95052133,9.20291611 4.8515625,9.31375 C4.75260367,9.42458389 4.63541734,9.48 4.5,9.48 C4.36458266,9.48 4.24739633,9.42458389 4.1484375,9.31375 C4.04947867,9.20291611 4,9.07166742 4,8.92 L4,5.56 C4,5.40833258 4.04947867,5.27708389 4.1484375,5.16625 C4.24739633,5.05541611 4.36458266,5 4.5,5 L7.5,5 Z M19.5,14.52 C19.6354173,14.52 19.7526037,14.5754161 19.8515625,14.68625 C19.9505213,14.7970839 20,14.9283326 20,15.08 L20,18.44 C20,18.5916674 19.9505213,18.7229161 19.8515625,18.83375 C19.7526037,18.9445839 19.6354173,19 19.5,19 L16.5,19 C16.3645827,19 16.2473963,18.9445839 16.1484375,18.83375 C16.0494787,18.7229161 16,18.5916674 16,18.44 C16,18.2883326 16.0494787,18.1570839 16.1484375,18.04625 C16.2473963,17.9354161 16.3645827,17.88 16.5,17.88 L19,17.88 L19,15.08 C19,14.9283326 19.0494787,14.7970839 19.1484375,14.68625 C19.2473963,14.5754161 19.3645827,14.52 19.5,14.52 Z M7.5,17.88 C7.63541734,17.88 7.75260367,17.9354161 7.8515625,18.04625 C7.95052133,18.1570839 8,18.2883326 8,18.44 C8,18.5916674 7.95052133,18.7229161 7.8515625,18.83375 C7.75260367,18.9445839 7.63541734,19 7.5,19 L4.5,19 C4.36458266,19 4.24739633,18.9445839 4.1484375,18.83375 C4.04947867,18.7229161 4,18.5916674 4,18.44 L4,15.08 C4,14.9283326 4.04947867,14.7970839 4.1484375,14.68625 C4.24739633,14.5754161 4.36458266,14.52 4.5,14.52 C4.63541734,14.52 4.75260367,14.5754161 4.8515625,14.68625 C4.95052133,14.7970839 5,14.9283326 5,15.08 L5,17.88 L7.5,17.88 Z M19.5,5 C19.6354173,5 19.7526037,5.05541611 19.8515625,5.16625 C19.9505213,5.27708389 20,5.40833258 20,5.56 L20,8.92 C20,9.07166742 19.9505213,9.20291611 19.8515625,9.31375 C19.7526037,9.42458389 19.6354173,9.48 19.5,9.48 C19.3645827,9.48 19.2473963,9.42458389 19.1484375,9.31375 C19.0494787,9.20291611 19,9.07166742 19,8.92 L19,6.12 L16.5,6.12 C16.3645827,6.12 16.2473963,6.06458389 16.1484375,5.95375 C16.0494787,5.84291611 16,5.71166742 16,5.56 C16,5.40833258 16.0494787,5.27708389 16.1484375,5.16625 C16.2473963,5.05541611 16.3645827,5 16.5,5 L19.5,5 Z"/>
  </defs>
  <g fill="none" fill-rule="evenodd">
    <use fill="#556066" xlink:href="#table-style-a"/>
  </g>
</svg>
