<svg xmlns="http://www.w3.org/2000/svg" xmlns:xlink="http://www.w3.org/1999/xlink" width="24" height="24" viewBox="0 0 24 24">
  <defs>
    <path id="table-column-a" d="M5.5,6.5 L18.5,6.5 C19.0522847,6.5 19.5,6.94771525 19.5,7.5 C19.5,8.05228475 19.0522847,8.5 18.5,8.5 L5.5,8.5 C4.94771525,8.5 4.5,8.05228475 4.5,7.5 C4.5,6.94771525 4.94771525,6.5 5.5,6.5 Z M5.5,10.5 L18.5,10.5 C19.0522847,10.5 19.5,10.9477153 19.5,11.5 C19.5,12.0522847 19.0522847,12.5 18.5,12.5 L5.5,12.5 C4.94771525,12.5 4.5,12.0522847 4.5,11.5 C4.5,10.9477153 4.94771525,10.5 5.5,10.5 Z M5.5,14.5 L18.5,14.5 C19.0522847,14.5 19.5,14.9477153 19.5,15.5 C19.5,16.0522847 19.0522847,16.5 18.5,16.5 L5.5,16.5 C4.94771525,16.5 4.5,16.0522847 4.5,15.5 C4.5,14.9477153 4.94771525,14.5 5.5,14.5 Z"/>
  </defs>
  <g fill="none" fill-rule="evenodd">
    <use transform="rotate(90 12 11.5)" xlink:href="#table-column-a"/>
  </g>
</svg>
