<svg xmlns="http://www.w3.org/2000/svg" xmlns:xlink="http://www.w3.org/1999/xlink" width="24" height="24" viewBox="0 0 24 24">
  <defs>
    <path id="trash-a" d="M18.015625,6.484375 C18.1510423,6.484375 18.2682287,6.53385367 18.3671875,6.6328125 C18.4661463,6.73177133 18.515625,6.84895766 18.515625,6.984375 C18.515625,7.11979234 18.4661463,7.23697867 18.3671875,7.3359375 C18.2682287,7.43489633 18.1510423,7.484375 18.015625,7.484375 L17.328125,7.484375 L16.15625,19.046875 C16.1354166,19.3177097 16.0234385,19.5468741 15.8203125,19.734375 C15.6171865,19.9218759 15.3802097,20.015625 15.109375,20.015625 L8.890625,20.015625 C8.61979031,20.015625 8.38281352,19.9218759 8.1796875,19.734375 C7.97656148,19.5468741 7.85937516,19.3177097 7.828125,19.046875 L6.671875,7.484375 L5.984375,7.484375 C5.84895766,7.484375 5.73177133,7.43489633 5.6328125,7.3359375 C5.53385367,7.23697867 5.484375,7.11979234 5.484375,6.984375 C5.484375,6.84895766 5.53385367,6.73177133 5.6328125,6.6328125 C5.73177133,6.53385367 5.84895766,6.484375 5.984375,6.484375 L9.5,6.484375 L9.5,5.125 C9.5,4.80208172 9.61458219,4.53125109 9.84375,4.3125 C10.0729178,4.09374891 10.3437484,3.984375 10.65625,3.984375 L13.34375,3.984375 C13.6562516,3.984375 13.9270822,4.09374891 14.15625,4.3125 C14.3854178,4.53125109 14.5,4.80208172 14.5,5.125 L14.5,6.484375 L18.015625,6.484375 Z M10.5,5.125 L10.5,6.484375 L13.5,6.484375 L13.5,5.125 C13.5,5.08333312 13.4843752,5.04687516 13.453125,5.015625 C13.4218748,4.98437484 13.3854169,4.96875 13.34375,4.96875 L10.65625,4.96875 C10.6145831,4.96875 10.5781252,4.98437484 10.546875,5.015625 C10.5156248,5.04687516 10.5,5.08333312 10.5,5.125 Z M15.171875,18.953125 L16.3125,7.484375 L7.6875,7.484375 L8.828125,18.953125 C8.828125,18.9635417 8.83593742,18.9765624 8.8515625,18.9921875 C8.86718758,19.0078126 8.88020828,19.015625 8.890625,19.015625 L15.109375,19.015625 C15.1197917,19.015625 15.1328124,19.0104167 15.1484375,19 C15.1640626,18.9895833 15.171875,18.9739584 15.171875,18.953125 Z"/>
  </defs>
  <g fill="none" fill-rule="evenodd">
    <use xlink:href="#trash-a"/>
  </g>
</svg>
