<svg xmlns="http://www.w3.org/2000/svg" xmlns:xlink="http://www.w3.org/1999/xlink" width="24" height="24" viewBox="0 0 24 24">
  <defs>
    <path id="upndown-a" d="M12.6640625,11.625 L12.6640625,6.3203125 L14.03125,7.82421875 C14.1223963,7.91536504 14.2265619,7.97070303 14.34375,7.99023437 C14.4609381,8.00976572 14.5651037,7.97395879 14.65625,7.8828125 L14.8125,7.765625 C14.9036463,7.67447871 14.9492188,7.56380273 14.9492188,7.43359375 C14.9492188,7.30338477 14.9036463,7.19270879 14.8125,7.1015625 L12.6054688,4.6796875 C12.579427,4.62760391 12.5468752,4.57877627 12.5078125,4.53320312 C12.4687498,4.48762998 12.4231773,4.45182305 12.3710938,4.42578125 L12.3320312,4.40625 C12.2929686,4.35416641 12.2473961,4.31835947 12.1953125,4.29882812 C12.1432289,4.27929678 12.0846357,4.26953125 12.0195312,4.26953125 C11.9674477,4.26953125 11.9121097,4.27929678 11.8535156,4.29882812 C11.7949216,4.31835947 11.7460939,4.35416641 11.7070312,4.40625 L11.53125,4.58203125 L9.28515625,7.0625 C9.19400996,7.15364629 9.1484375,7.26432227 9.1484375,7.39453125 C9.1484375,7.52474023 9.19400996,7.63541621 9.28515625,7.7265625 L9.44140625,7.84375 C9.53255254,7.93489629 9.63997334,7.97070322 9.76367188,7.95117187 C9.88737041,7.93164053 9.98828086,7.87630254 10.0664062,7.78515625 L11.4140625,6.28125 L11.4140625,11.6054687 L11.4140625,12.875 L11.4140625,18.21875 L10.0664062,16.7148438 C9.98828086,16.6236975 9.88737041,16.5683595 9.76367188,16.5488281 C9.63997334,16.5292968 9.53255254,16.5651037 9.44140625,16.65625 L9.28515625,16.7734375 C9.19400996,16.8645838 9.1484375,16.9752598 9.1484375,17.1054688 C9.1484375,17.2356777 9.19400996,17.3463537 9.28515625,17.4375 L11.53125,19.9179688 L11.7070312,20.09375 C11.7460939,20.1458336 11.7949216,20.1816405 11.8535156,20.2011719 C11.9121097,20.2207032 11.9674477,20.2304688 12.0195312,20.2304688 C12.0846357,20.2304688 12.1432289,20.2207032 12.1953125,20.2011719 C12.2473961,20.1816405 12.2929686,20.1458336 12.3320312,20.09375 L12.4882812,19.9375 L12.5078125,19.9375 L14.8125,17.3984375 C14.9036463,17.3072912 14.9492188,17.1966152 14.9492188,17.0664062 C14.9492188,16.9361973 14.9036463,16.8255213 14.8125,16.734375 L14.65625,16.6171875 C14.5651037,16.5260412 14.4609381,16.4902343 14.34375,16.5097656 C14.2265619,16.529297 14.1223963,16.584635 14.03125,16.6757812 L12.6835938,18.1796875 L12.6835938,12.875 L12.6640625,11.625 Z"/>
  </defs>
  <g fill="none" fill-rule="evenodd">
    <use xlink:href="#upndown-a"/>
  </g>
</svg>
