<svg xmlns="http://www.w3.org/2000/svg" xmlns:xlink="http://www.w3.org/1999/xlink" width="24" height="24" viewBox="0 0 24 24">
  <defs>
    <path id="video-a" d="M13.96875,7.484375 L5.03125,7.484375 C5.02083328,7.484375 5.01302086,7.48958328 5.0078125,7.5 C5.00260414,7.51041672 5,7.52083328 5,7.53125 L5,16.46875 C5,16.4791667 5.00260414,16.4895833 5.0078125,16.5 C5.01302086,16.5104167 5.02083328,16.515625 5.03125,16.515625 L13.96875,16.515625 C13.9791667,16.515625 13.9869791,16.5104167 13.9921875,16.5 C13.9973959,16.4895833 14,16.4791667 14,16.46875 L14,14.515625 C14,14.3281241 14.0494787,14.1536466 14.1484375,13.9921875 C14.2473963,13.8307284 14.3802075,13.7083337 14.546875,13.625 C14.619792,13.5833331 14.6953121,13.5546876 14.7734375,13.5390625 C14.8515629,13.5234374 14.927083,13.515625 15,13.515625 C15.1041672,13.515625 15.2057287,13.5286457 15.3046875,13.5546875 C15.4036463,13.5807293 15.4947913,13.6249997 15.578125,13.6875 L19,15.5625 L19,8.421875 L15.59375,10.34375 C15.5104163,10.4062503 15.4166672,10.4505207 15.3125,10.4765625 C15.2083328,10.5026043 15.1041672,10.515625 15,10.515625 C14.927083,10.515625 14.8515629,10.5078126 14.7734375,10.4921875 C14.6953121,10.4765624 14.6145837,10.4479169 14.53125,10.40625 C14.3749992,10.3229162 14.2473963,10.2005216 14.1484375,10.0390625 C14.0494787,9.87760336 14,9.70312594 14,9.515625 L14,7.53125 C14,7.52083328 13.9973959,7.51041672 13.9921875,7.5 C13.9869791,7.48958328 13.9791667,7.484375 13.96875,7.484375 Z M19.46875,6.984375 C19.5312503,6.984375 19.580729,6.99218742 19.6171875,7.0078125 C19.653646,7.02343758 19.6770833,7.03125 19.6875,7.03125 C19.7812505,7.07291688 19.8567705,7.13541625 19.9140625,7.21875 C19.9713545,7.30208375 20,7.40104109 20,7.515625 L20,16.5 C20,16.6041672 19.9713545,16.6979162 19.9140625,16.78125 C19.8567705,16.8645838 19.7812505,16.9270831 19.6875,16.96875 C19.6770833,16.96875 19.653646,16.9765624 19.6171875,16.9921875 C19.580729,17.0078126 19.5364586,17.015625 19.484375,17.015625 C19.4218747,17.015625 19.3593753,17.0130209 19.296875,17.0078125 C19.2343747,17.0026041 19.1718753,16.9687503 19.109375,16.90625 L15,14.515625 L15,16.46875 C15,16.7604181 14.8984385,17.0078115 14.6953125,17.2109375 C14.4921865,17.4140635 14.2500014,17.515625 13.96875,17.515625 L5.03125,17.515625 C4.74999859,17.515625 4.50781352,17.4140635 4.3046875,17.2109375 C4.10156148,17.0078115 4,16.7604181 4,16.46875 L4,7.53125 C4,7.23958188 4.10156148,6.99218852 4.3046875,6.7890625 C4.50781352,6.58593648 4.74999859,6.484375 5.03125,6.484375 L13.96875,6.484375 C14.2604181,6.484375 14.5052073,6.58593648 14.703125,6.7890625 C14.9010427,6.99218852 15,7.23958188 15,7.53125 L15,9.515625 L19.03125,7.140625 C19.0937503,7.07812469 19.1692704,7.03645844 19.2578125,7.015625 C19.3463546,6.99479156 19.4166664,6.984375 19.46875,6.984375 Z"/>
  </defs>
  <g fill="none" fill-rule="evenodd">
    <use xlink:href="#video-a"/>
  </g>
</svg>
