<svg xmlns="http://www.w3.org/2000/svg" width="24" height="24" viewBox="0 0 24 24">
  <g transform="translate(0 3)">
    <path d="M15.4909688,7.7561413 L10.6564688,5.13660326 C10.2803438,4.9327337 9.82167188,4.94867935 9.45923438,5.178375 C9.09703125,5.40802174 8.87198438,5.82534783 8.87198438,6.26761957 L8.87198438,11.523913 C8.87198438,11.9668207 9.09745313,12.384538 9.4606875,12.6141848 C9.65146875,12.7347065 9.87028125,12.7984402 10.0934063,12.7984402 C10.2897188,12.7984402 10.4853281,12.7483043 10.6591875,12.6535109 L15.4936875,10.0169511 C15.8987344,9.79620652 16.1499844,9.36269022 16.1495156,8.88554348 C16.1489531,8.40869022 15.8965781,7.97590761 15.4909688,7.7561413 Z M15.0508125,9.13260326 L15.0507656,9.13260326 L10.2161719,11.769212 C10.1356406,11.8131848 10.0335938,11.8097609 9.95601563,11.76075 C9.877125,11.7108587 9.82814063,11.620125 9.82814063,11.5238641 L9.82814063,6.26761957 C9.82814063,6.17160326 9.87703125,6.0810163 9.95564063,6.03117391 C9.9976875,6.00456522 10.0455469,5.99116304 10.0935938,5.99116304 C10.1355469,5.99116304 10.1775938,6.00138587 10.2156563,6.02202717 L15.05025,8.64161413 C15.138375,8.68935326 15.1931719,8.78336413 15.1933125,8.8867663 C15.1933594,8.99046196 15.13875,9.08466848 15.0508125,9.13260326 Z"/>
    <path d="M22.9895625,1.67028261 L22.9895625,1.67033152 C22.0560469,0.512315217 20.4143438,0.0399130435 17.3232188,0.0399130435 L6.67659375,0.0399130435 C3.51159375,0.0399130435 1.84101562,0.543081522 0.910359375,1.77671739 C0,2.98359783 0,4.63411957 0,6.91855435 L0,11.0814946 C0,12.9577989 0.151734375,14.8749457 1.25273438,16.1867935 C2.26804688,17.3966087 3.9915,17.960087 6.67659375,17.960087 L17.3232656,17.960087 C20.0031094,17.960087 21.5082187,17.5485815 22.5184688,16.5397011 C23.5568906,15.5026957 24,13.8703207 24,11.0814946 L24,6.91855435 C24,4.5052337 23.9296875,2.83617391 22.9895625,1.67028261 Z M23.0438438,11.0814946 C23.0438438,13.5715598 22.689,14.988375 21.8573438,15.8188696 C21.0440625,16.6310217 19.7304844,16.9623587 17.3233125,16.9623587 L6.67659375,16.9623587 C1.78209375,16.9623587 0.956203125,15.1481739 0.956203125,11.0815435 L0.956203125,6.91860326 C0.956203125,4.83480978 0.956203125,3.32921739 1.66171875,2.39395109 C2.38842188,1.4306087 3.8413125,1.03769022 6.67664063,1.03769022 L6.67664063,1.0376413 L17.3232656,1.0376413 C20.0982188,1.0376413 21.5279063,1.40703261 22.2579375,2.3126087 L22.2579375,2.31265761 C22.9891875,3.21945652 23.0438438,4.72504891 23.0438438,6.91855435 L23.0438438,11.0814946 L23.0438438,11.0814946 Z"/>
  </g>
</svg>
